<svg width="419" height="283" viewBox="0 0 419 283" fill="none" xmlns="http://www.w3.org/2000/svg">
<path d="M94.826 145.355C95.246 145.355 95.5727 145.647 95.806 146.23C94.8027 148.89 94.301 152.355 94.301 156.625V160.44H94.371C95.6777 159.133 97.696 155.097 100.426 148.33C101.126 147.443 101.663 147 102.036 147H102.176C102.573 147 102.888 147.222 103.121 147.665V148.33C102.468 148.727 100.869 152.028 98.326 158.235L95.456 162.54V162.61C98.0927 165.34 100.834 166.705 103.681 166.705H105.011C105.874 166.705 106.458 166.623 106.761 166.46C107.391 166.717 107.706 167.09 107.706 167.58V167.86C107.706 168.443 106.691 168.735 104.661 168.735H104.136C100.799 168.735 97.6144 167.358 94.581 164.605H94.371V168.665C94.371 169.458 94.0094 169.855 93.286 169.855C92.6327 169.855 92.306 169.458 92.306 168.665V164.5C91.4427 163.847 91.011 163.147 91.011 162.4C91.011 161.77 91.4077 161.455 92.201 161.455V156.485C92.201 151.958 92.7844 148.365 93.951 145.705C94.2544 145.472 94.546 145.355 94.826 145.355ZM111.531 148.715C112.184 148.948 112.511 149.31 112.511 149.8L112.861 163.135V167.44C112.861 168.233 112.522 168.63 111.846 168.63H111.391C110.971 168.35 110.761 168.023 110.761 167.65V163.59L110.446 149.73C110.446 149.147 110.807 148.808 111.531 148.715ZM115.8 149.765C116.687 149.952 117.13 150.348 117.13 150.955C116.897 151.608 116.524 151.935 116.01 151.935C115.147 151.772 114.715 151.34 114.715 150.64C114.949 150.057 115.31 149.765 115.8 149.765ZM117.13 154.665C117.504 154.665 117.819 155.003 118.075 155.68L117.76 158.165V159.81C117.76 161.723 118.087 164.232 118.74 167.335C118.507 167.778 118.11 168 117.55 168C116.594 168 115.964 165.2 115.66 159.6V158.375C115.66 155.902 116.15 154.665 117.13 154.665ZM122.326 149.485H122.536C122.84 149.485 123.131 149.742 123.411 150.255L123.271 152.635V153.965L123.411 160.09L123.516 160.44H123.621C124.625 159.507 125.5 157.862 126.246 155.505L127.016 155.26C127.67 155.353 127.996 155.645 127.996 156.135C127.996 157.652 126.911 159.693 124.741 162.26V162.505C127.611 165.842 129.501 167.51 130.411 167.51H130.621L131.496 166.985H131.811C132.301 166.985 132.663 167.312 132.896 167.965C132.896 168.712 132.068 169.225 130.411 169.505C128.755 169.505 126.596 167.825 123.936 164.465H123.621L123.726 166.355V168.175C123.586 168.898 123.225 169.26 122.641 169.26C121.988 169.12 121.661 168.758 121.661 168.175V167.965L121.521 163.94C121.265 163.94 121.09 163.578 120.996 162.855L121.451 161.98L121.241 154.105V152.565C121.241 150.512 121.603 149.485 122.326 149.485ZM154.066 153.825C154.696 153.825 155.127 154.887 155.361 157.01C155.127 157.593 154.742 157.885 154.206 157.885C153.832 157.815 153.459 157.383 153.086 156.59L152.456 156.38C151.359 156.38 150.367 157.103 149.481 158.55V158.865C149.481 159.215 151.126 159.798 154.416 160.615C155.792 161.432 156.481 162.423 156.481 163.59C156.481 165.503 154.941 167.137 151.861 168.49L150.566 168.7C148.606 168.49 147.626 167.51 147.626 165.76V165.655C147.626 165.095 147.987 164.768 148.711 164.675C149.271 164.675 149.644 165.258 149.831 166.425L150.111 166.635H150.706C152.036 166.635 153.272 165.725 154.416 163.905V163.45C154.416 162.75 152.887 162.097 149.831 161.49C148.221 160.837 147.416 159.927 147.416 158.76C147.416 157.243 148.687 155.82 151.231 154.49C152.351 154.35 153.296 154.128 154.066 153.825ZM158.183 149.765C159.07 149.952 159.513 150.348 159.513 150.955C159.28 151.608 158.906 151.935 158.393 151.935C157.53 151.772 157.098 151.34 157.098 150.64C157.331 150.057 157.693 149.765 158.183 149.765ZM159.513 154.665C159.886 154.665 160.201 155.003 160.458 155.68L160.143 158.165V159.81C160.143 161.723 160.47 164.232 161.123 167.335C160.89 167.778 160.493 168 159.933 168C158.976 168 158.346 165.2 158.043 159.6V158.375C158.043 155.902 158.533 154.665 159.513 154.665ZM167.474 156.205C169.458 156.368 170.449 157.337 170.449 159.11L170.519 159.565L170.449 165.025C170.449 165.655 170.811 166.507 171.534 167.58V167.65C171.348 168.327 171.009 168.665 170.519 168.665C169.073 168.058 168.349 166.775 168.349 164.815V164.36L168.244 164.29L168.349 164.15V164.08L168.454 159.25C168.454 158.573 168.163 158.235 167.579 158.235H167.159C165.993 158.702 165.409 161.257 165.409 165.9C165.409 167.51 165.001 168.315 164.184 168.315C163.554 168.315 163.228 167.918 163.204 167.125V163.625C163.204 159.098 163.601 156.835 164.394 156.835L164.744 156.73L165.479 156.835C166.109 156.415 166.774 156.205 167.474 156.205ZM173.051 149.765C173.938 149.952 174.381 150.348 174.381 150.955C174.148 151.608 173.775 151.935 173.261 151.935C172.398 151.772 171.966 151.34 171.966 150.64C172.2 150.057 172.561 149.765 173.051 149.765ZM174.381 154.665C174.755 154.665 175.07 155.003 175.326 155.68L175.011 158.165V159.81C175.011 161.723 175.338 164.232 175.991 167.335C175.758 167.778 175.361 168 174.801 168C173.845 168 173.215 165.2 172.911 159.6V158.375C172.911 155.902 173.401 154.665 174.381 154.665ZM192.386 157.465L193.016 157.115C193.576 157.115 193.984 157.453 194.241 158.13C193.867 159.857 193.681 161.63 193.681 163.45C193.681 164.36 193.949 165.352 194.486 166.425H194.696C195.372 166.425 196.177 163.753 197.111 158.41C197.437 158.13 197.752 157.99 198.056 157.99C198.779 157.99 199.141 159.273 199.141 161.84C199.444 164.663 199.782 166.075 200.156 166.075L200.681 165.865C201.357 166.122 201.696 166.483 201.696 166.95C201.276 167.837 200.692 168.28 199.946 168.28C199.106 168.28 198.301 167.44 197.531 165.76C196.597 167.72 195.652 168.7 194.696 168.7C193.272 168.7 192.281 167.218 191.721 164.255L191.616 163.135V162.785C191.616 160.918 191.872 159.145 192.386 157.465ZM206.986 156.205C208.969 156.368 209.961 157.337 209.961 159.11L210.031 159.565L209.961 165.025C209.961 165.655 210.323 166.507 211.046 167.58V167.65C210.859 168.327 210.521 168.665 210.031 168.665C208.584 168.058 207.861 166.775 207.861 164.815V164.36L207.756 164.29L207.861 164.15V164.08L207.966 159.25C207.966 158.573 207.674 158.235 207.091 158.235H206.671C205.504 158.702 204.921 161.257 204.921 165.9C204.921 167.51 204.513 168.315 203.696 168.315C203.066 168.315 202.739 167.918 202.716 167.125V163.625C202.716 159.098 203.113 156.835 203.906 156.835L204.256 156.73L204.991 156.835C205.621 156.415 206.286 156.205 206.986 156.205ZM216.273 146.755C216.926 146.895 217.253 147.222 217.253 147.735L217.043 149.275V149.73C217.043 150.757 217.16 151.842 217.393 152.985H217.463C220.17 152.168 221.85 151.76 222.503 151.76C223.18 151.947 223.518 152.285 223.518 152.775C223.518 153.568 222.713 153.965 221.103 153.965L217.463 155.26C217.463 158.41 217.801 162.692 218.478 168.105C218.338 168.735 218 169.05 217.463 169.05H217.393C216.576 169.05 216.168 168 216.168 165.9C215.865 164.337 215.608 160.942 215.398 155.715H214.768C212.575 155.575 211.478 155.062 211.478 154.175C211.478 153.918 211.723 153.603 212.213 153.23H212.563L214.173 153.65H215.293L214.978 149.275C214.978 147.595 215.41 146.755 216.273 146.755ZM225.984 157.465L226.614 157.115C227.174 157.115 227.583 157.453 227.839 158.13C227.466 159.857 227.279 161.63 227.279 163.45C227.279 164.36 227.548 165.352 228.084 166.425H228.294C228.971 166.425 229.776 163.753 230.709 158.41C231.036 158.13 231.351 157.99 231.654 157.99C232.378 157.99 232.739 159.273 232.739 161.84C233.043 164.663 233.381 166.075 233.754 166.075L234.279 165.865C234.956 166.122 235.294 166.483 235.294 166.95C234.874 167.837 234.291 168.28 233.544 168.28C232.704 168.28 231.899 167.44 231.129 165.76C230.196 167.72 229.251 168.7 228.294 168.7C226.871 168.7 225.879 167.218 225.319 164.255L225.214 163.135V162.785C225.214 160.918 225.471 159.145 225.984 157.465ZM237.82 149.485H238.03C238.333 149.485 238.625 149.742 238.905 150.255L238.765 152.635V153.965L238.905 160.09L239.01 160.44H239.115C240.118 159.507 240.993 157.862 241.74 155.505L242.51 155.26C243.163 155.353 243.49 155.645 243.49 156.135C243.49 157.652 242.405 159.693 240.235 162.26V162.505C243.105 165.842 244.995 167.51 245.905 167.51H246.115L246.99 166.985H247.305C247.795 166.985 248.156 167.312 248.39 167.965C248.39 168.712 247.561 169.225 245.905 169.505C244.248 169.505 242.09 167.825 239.43 164.465H239.115L239.22 166.355V168.175C239.08 168.898 238.718 169.26 238.135 169.26C237.481 169.12 237.155 168.758 237.155 168.175V167.965L237.015 163.94C236.758 163.94 236.583 163.578 236.49 162.855L236.945 161.98L236.735 154.105V152.565C236.735 150.512 237.096 149.485 237.82 149.485ZM270.749 148.785C271.146 148.785 271.507 149.158 271.834 149.905L270.294 159.635V162.365C270.294 165.212 270.737 166.635 271.624 166.635C272.207 166.915 272.499 167.288 272.499 167.755C272.499 168.292 272.032 168.607 271.099 168.7C270.072 168.7 269.267 167.755 268.684 165.865H268.334C267.471 167.755 266.421 168.7 265.184 168.7C263.737 168.7 262.862 167.603 262.559 165.41C262.559 162.867 264.262 160.172 267.669 157.325C268.346 157.325 268.684 156.38 268.684 154.49C269.197 150.687 269.886 148.785 270.749 148.785ZM264.624 165.13V166.075L265.184 166.635H265.394C266.141 166.635 267.016 164.383 268.019 159.88H267.809C265.686 162.003 264.624 163.753 264.624 165.13ZM280.28 154.49C281.306 154.49 281.82 154.898 281.82 155.715L281.505 156.38L281.295 162.785C281.295 165.678 281.878 167.475 283.045 168.175L283.115 168.7C283.045 169.377 282.73 169.715 282.17 169.715H281.96C280.21 168.525 279.335 166.705 279.335 164.255H279.09C278.156 166.868 277.025 168.175 275.695 168.175C274.458 167.825 273.84 166.903 273.84 165.41C273.84 162.12 275.158 158.842 277.795 155.575C278.681 154.852 279.51 154.49 280.28 154.49ZM276.045 164.01L275.905 164.99V165.655H276.255C278.005 161.292 278.88 158.632 278.88 157.675H278.74C277.386 159.192 276.488 161.303 276.045 164.01ZM288.26 157.605C290.733 157.605 292.191 159.157 292.635 162.26C292.635 165.013 291.351 166.985 288.785 168.175C288.505 168.315 288.12 168.385 287.63 168.385H287.385L286.615 168.315V168.385L286.755 177.73C286.591 178.453 286.218 178.815 285.635 178.815C284.981 178.605 284.655 178.267 284.655 177.8L284.34 158.76C284.34 158.153 284.701 157.838 285.425 157.815L286.16 158.13C286.813 157.78 287.513 157.605 288.26 157.605ZM286.51 161.315L286.405 162.4L286.51 166.11L287.49 166.355C289.053 166.355 290.068 165.212 290.535 162.925V162.4C290.371 160.557 289.718 159.635 288.575 159.635H288.05C287.023 159.635 286.51 160.195 286.51 161.315ZM300.822 154.49C301.848 154.49 302.362 154.898 302.362 155.715L302.047 156.38L301.837 162.785C301.837 165.678 302.42 167.475 303.587 168.175L303.657 168.7C303.587 169.377 303.272 169.715 302.712 169.715H302.502C300.752 168.525 299.877 166.705 299.877 164.255H299.632C298.698 166.868 297.567 168.175 296.237 168.175C295 167.825 294.382 166.903 294.382 165.41C294.382 162.12 295.7 158.842 298.337 155.575C299.223 154.852 300.052 154.49 300.822 154.49ZM296.587 164.01L296.447 164.99V165.655H296.797C298.547 161.292 299.422 158.632 299.422 157.675H299.282C297.928 159.192 297.03 161.303 296.587 164.01ZM308.627 146.755C309.28 146.895 309.607 147.222 309.607 147.735L309.397 149.275V149.73C309.397 150.757 309.513 151.842 309.747 152.985H309.817C312.523 152.168 314.203 151.76 314.857 151.76C315.533 151.947 315.872 152.285 315.872 152.775C315.872 153.568 315.067 153.965 313.457 153.965L309.817 155.26C309.817 158.41 310.155 162.692 310.832 168.105C310.692 168.735 310.353 169.05 309.817 169.05H309.747C308.93 169.05 308.522 168 308.522 165.9C308.218 164.337 307.962 160.942 307.752 155.715H307.122C304.928 155.575 303.832 155.062 303.832 154.175C303.832 153.918 304.077 153.603 304.567 153.23H304.917L306.527 153.65H307.647L307.332 149.275C307.332 147.595 307.763 146.755 308.627 146.755ZM318.723 149.485H318.933C319.236 149.485 319.528 149.742 319.808 150.255L319.668 152.635V153.965L319.808 160.09L319.913 160.44H320.018C321.021 159.507 321.896 157.862 322.643 155.505L323.413 155.26C324.066 155.353 324.393 155.645 324.393 156.135C324.393 157.652 323.308 159.693 321.138 162.26V162.505C324.008 165.842 325.898 167.51 326.808 167.51H327.018L327.893 166.985H328.208C328.698 166.985 329.06 167.312 329.293 167.965C329.293 168.712 328.465 169.225 326.808 169.505C325.151 169.505 322.993 167.825 320.333 164.465H320.018L320.123 166.355V168.175C319.983 168.898 319.621 169.26 319.038 169.26C318.385 169.12 318.058 168.758 318.058 168.175V167.965L317.918 163.94C317.661 163.94 317.486 163.578 317.393 162.855L317.848 161.98L317.638 154.105V152.565C317.638 150.512 318 149.485 318.723 149.485ZM336.779 154.49C337.806 154.49 338.319 154.898 338.319 155.715L338.004 156.38L337.794 162.785C337.794 165.678 338.377 167.475 339.544 168.175L339.614 168.7C339.544 169.377 339.229 169.715 338.669 169.715H338.459C336.709 168.525 335.834 166.705 335.834 164.255H335.589C334.656 166.868 333.524 168.175 332.194 168.175C330.957 167.825 330.339 166.903 330.339 165.41C330.339 162.12 331.657 158.842 334.294 155.575C335.181 154.852 336.009 154.49 336.779 154.49ZM332.544 164.01L332.404 164.99V165.655H332.754C334.504 161.292 335.379 158.632 335.379 157.675H335.239C333.886 159.192 332.987 161.303 332.544 164.01ZM345.004 156.205C346.987 156.368 347.979 157.337 347.979 159.11L348.049 159.565L347.979 165.025C347.979 165.655 348.34 166.507 349.064 167.58V167.65C348.877 168.327 348.539 168.665 348.049 168.665C346.602 168.058 345.879 166.775 345.879 164.815V164.36L345.774 164.29L345.879 164.15V164.08L345.984 159.25C345.984 158.573 345.692 158.235 345.109 158.235H344.689C343.522 158.702 342.939 161.257 342.939 165.9C342.939 167.51 342.53 168.315 341.714 168.315C341.084 168.315 340.757 167.918 340.734 167.125V163.625C340.734 159.098 341.13 156.835 341.924 156.835L342.274 156.73L343.009 156.835C343.639 156.415 344.304 156.205 345.004 156.205ZM133.901 200.715C134.555 200.948 134.881 201.31 134.881 201.8L135.231 215.135V219.44C135.231 220.233 134.893 220.63 134.216 220.63H133.761C133.341 220.35 133.131 220.023 133.131 219.65V215.59L132.816 201.73C132.816 201.147 133.178 200.808 133.901 200.715ZM143.351 206.805C145.078 206.805 146.384 208.088 147.271 210.655L147.411 211.39C147.411 213.887 146.244 216.442 143.911 219.055C142.978 219.918 142.033 220.35 141.076 220.35C139.676 220.35 138.684 219.545 138.101 217.935C137.891 217.188 137.786 216.535 137.786 215.975V215.555C137.786 211.868 139.128 209.068 141.811 207.155C142.278 206.922 142.791 206.805 143.351 206.805ZM139.851 215.905C139.851 217.492 140.259 218.285 141.076 218.285C142.779 218.285 144.191 216.103 145.311 211.74V211.075C144.914 209.628 144.179 208.905 143.106 208.905C142.686 208.905 142.476 209.197 142.476 209.78C142.476 210.177 142.009 210.492 141.076 210.725C140.259 212.102 139.851 213.828 139.851 215.905ZM150.747 201.485H150.957C151.26 201.485 151.552 201.742 151.832 202.255L151.692 204.635V205.965L151.832 212.09L151.937 212.44H152.042C153.045 211.507 153.92 209.862 154.667 207.505L155.437 207.26C156.09 207.353 156.417 207.645 156.417 208.135C156.417 209.652 155.332 211.693 153.162 214.26V214.505C156.032 217.842 157.922 219.51 158.832 219.51H159.042L159.917 218.985H160.232C160.722 218.985 161.084 219.312 161.317 219.965C161.317 220.712 160.489 221.225 158.832 221.505C157.175 221.505 155.017 219.825 152.357 216.465H152.042L152.147 218.355V220.175C152.007 220.898 151.645 221.26 151.062 221.26C150.409 221.12 150.082 220.758 150.082 220.175V219.965L149.942 215.94C149.685 215.94 149.51 215.578 149.417 214.855L149.872 213.98L149.662 206.105V204.565C149.662 202.512 150.024 201.485 150.747 201.485ZM168.803 206.49C169.829 206.49 170.343 206.898 170.343 207.715L170.028 208.38L169.818 214.785C169.818 217.678 170.401 219.475 171.568 220.175L171.638 220.7C171.568 221.377 171.253 221.715 170.693 221.715H170.483C168.733 220.525 167.858 218.705 167.858 216.255H167.613C166.679 218.868 165.548 220.175 164.218 220.175C162.981 219.825 162.363 218.903 162.363 217.41C162.363 214.12 163.681 210.842 166.318 207.575C167.204 206.852 168.033 206.49 168.803 206.49ZM164.568 216.01L164.428 216.99V217.655H164.778C166.528 213.292 167.403 210.632 167.403 209.675H167.263C165.909 211.192 165.011 213.303 164.568 216.01ZM179.513 205.825C180.143 205.825 180.574 206.887 180.807 209.01C180.574 209.593 180.189 209.885 179.653 209.885C179.279 209.815 178.906 209.383 178.533 208.59L177.903 208.38C176.806 208.38 175.814 209.103 174.928 210.55V210.865C174.928 211.215 176.573 211.798 179.863 212.615C181.239 213.432 181.928 214.423 181.928 215.59C181.928 217.503 180.388 219.137 177.308 220.49L176.013 220.7C174.053 220.49 173.073 219.51 173.073 217.76V217.655C173.073 217.095 173.434 216.768 174.158 216.675C174.718 216.675 175.091 217.258 175.278 218.425L175.558 218.635H176.153C177.483 218.635 178.719 217.725 179.863 215.905V215.45C179.863 214.75 178.334 214.097 175.278 213.49C173.668 212.837 172.863 211.927 172.863 210.76C172.863 209.243 174.134 207.82 176.678 206.49C177.798 206.35 178.743 206.128 179.513 205.825ZM183.63 201.765C184.517 201.952 184.96 202.348 184.96 202.955C184.727 203.608 184.353 203.935 183.84 203.935C182.977 203.772 182.545 203.34 182.545 202.64C182.778 202.057 183.14 201.765 183.63 201.765ZM184.96 206.665C185.333 206.665 185.648 207.003 185.905 207.68L185.59 210.165V211.81C185.59 213.723 185.917 216.232 186.57 219.335C186.337 219.778 185.94 220 185.38 220C184.423 220 183.793 217.2 183.49 211.6V210.375C183.49 207.902 183.98 206.665 184.96 206.665ZM208.109 206.49C209.136 206.49 209.649 206.898 209.649 207.715L209.334 208.38L209.124 214.785C209.124 217.678 209.708 219.475 210.874 220.175L210.944 220.7C210.874 221.377 210.559 221.715 209.999 221.715H209.789C208.039 220.525 207.164 218.705 207.164 216.255H206.919C205.986 218.868 204.854 220.175 203.524 220.175C202.288 219.825 201.669 218.903 201.669 217.41C201.669 214.12 202.988 210.842 205.624 207.575C206.511 206.852 207.339 206.49 208.109 206.49ZM203.874 216.01L203.734 216.99V217.655H204.084C205.834 213.292 206.709 210.632 206.709 209.675H206.569C205.216 211.192 204.318 213.303 203.874 216.01ZM215.914 198.755C216.567 198.895 216.894 199.222 216.894 199.735L216.684 201.275V201.73C216.684 202.757 216.801 203.842 217.034 204.985H217.104C219.811 204.168 221.491 203.76 222.144 203.76C222.821 203.947 223.159 204.285 223.159 204.775C223.159 205.568 222.354 205.965 220.744 205.965L217.104 207.26C217.104 210.41 217.442 214.692 218.119 220.105C217.979 220.735 217.641 221.05 217.104 221.05H217.034C216.217 221.05 215.809 220 215.809 217.9C215.506 216.337 215.249 212.942 215.039 207.715H214.409C212.216 207.575 211.119 207.062 211.119 206.175C211.119 205.918 211.364 205.603 211.854 205.23H212.204L213.814 205.65H214.934L214.619 201.275C214.619 199.595 215.051 198.755 215.914 198.755ZM230.771 206.49C231.797 206.49 232.311 206.898 232.311 207.715L231.996 208.38L231.786 214.785C231.786 217.678 232.369 219.475 233.536 220.175L233.606 220.7C233.536 221.377 233.221 221.715 232.661 221.715H232.451C230.701 220.525 229.826 218.705 229.826 216.255H229.581C228.647 218.868 227.516 220.175 226.186 220.175C224.949 219.825 224.331 218.903 224.331 217.41C224.331 214.12 225.649 210.842 228.286 207.575C229.172 206.852 230.001 206.49 230.771 206.49ZM226.536 216.01L226.396 216.99V217.655H226.746C228.496 213.292 229.371 210.632 229.371 209.675H229.231C227.877 211.192 226.979 213.303 226.536 216.01ZM235.845 209.465L236.475 209.115C237.035 209.115 237.444 209.453 237.7 210.13C237.327 211.857 237.14 213.63 237.14 215.45C237.14 216.36 237.409 217.352 237.945 218.425H238.155C238.832 218.425 239.637 215.753 240.57 210.41C240.897 210.13 241.212 209.99 241.515 209.99C242.239 209.99 242.6 211.273 242.6 213.84C242.904 216.663 243.242 218.075 243.615 218.075L244.14 217.865C244.817 218.122 245.155 218.483 245.155 218.95C244.735 219.837 244.152 220.28 243.405 220.28C242.565 220.28 241.76 219.44 240.99 217.76C240.057 219.72 239.112 220.7 238.155 220.7C236.732 220.7 235.74 219.218 235.18 216.255L235.075 215.135V214.785C235.075 212.918 235.332 211.145 235.845 209.465ZM265.074 200.085H265.214C268.037 200.598 269.449 201.963 269.449 204.18V204.81C269.449 207.26 267.885 209.698 264.759 212.125V212.265C269.822 216.792 273.322 219.055 275.259 219.055C275.609 219.312 275.784 219.627 275.784 220C275.784 220.537 275.387 220.875 274.594 221.015C272.657 221.015 269.04 218.682 263.744 214.015L262.239 213.21H262.134C262.787 215.823 263.114 217.842 263.114 219.265C263.114 219.872 262.74 220.303 261.994 220.56C260.92 220.56 260.244 217.935 259.964 212.685C259.217 210.258 258.844 208.322 258.844 206.875V206.56C258.844 204.437 259.31 203.375 260.244 203.375L260.909 203.725H261.119C262.239 201.298 263.557 200.085 265.074 200.085ZM262.239 209.43L262.134 210.725C264.304 210.725 266.054 208.928 267.384 205.335V204.04C267.384 203.013 266.684 202.395 265.284 202.185H265.074C263.604 202.185 262.659 204.6 262.239 209.43ZM287.877 199.28H288.227C288.881 199.28 289.254 199.665 289.347 200.435C289.347 201.112 288.426 201.45 286.582 201.45C283.619 202.57 281.624 204.203 280.597 206.35L280.352 207.365V207.575C280.352 208.602 281.041 209.115 282.417 209.115L286.267 208.905C288.857 208.905 290.607 210.165 291.517 212.685L291.727 213.91C291.727 216.337 289.767 218.553 285.847 220.56C284.681 220.887 283.654 221.108 282.767 221.225C280.387 221.225 278.707 219.883 277.727 217.2C277.447 216.29 277.307 215.368 277.307 214.435C277.307 214.155 277.529 213.863 277.972 213.56H278.392C279.116 213.56 279.477 214.482 279.477 216.325C280.084 218.145 281.041 219.055 282.347 219.055H283.292C285.182 219.055 287.049 217.958 288.892 215.765C289.382 215.065 289.627 214.307 289.627 213.49C289.627 212.347 288.729 211.542 286.932 211.075H286.792L282.207 211.18C279.664 210.877 278.392 209.827 278.392 208.03L278.252 207.575C278.252 205.172 280.049 202.838 283.642 200.575C285.206 199.712 286.617 199.28 287.877 199.28ZM307.305 199.105C307.748 199.105 308.04 199.467 308.18 200.19C308.18 200.61 307.457 201.158 306.01 201.835C304.75 202.628 303.63 204.53 302.65 207.54C301.483 212.417 300.9 216.722 300.9 220.455C300.503 220.805 300.13 220.98 299.78 220.98C299.197 220.98 298.648 219.813 298.135 217.48C294.565 208.567 292.78 203.643 292.78 202.71C292.78 202.243 293.153 201.952 293.9 201.835C294.507 201.835 295.09 203.037 295.65 205.44L299.01 214.085H299.15C299.29 214.085 299.5 212.918 299.78 210.585C300.667 206.898 301.542 204.355 302.405 202.955C304.342 200.388 305.975 199.105 307.305 199.105ZM312.971 197.005H313.531C317.334 197.005 319.773 198.382 320.846 201.135L320.951 202.255V202.605C320.951 205.312 319.306 207.82 316.016 210.13C315.223 210.363 314.826 210.62 314.826 210.9C315.759 214.47 316.226 217.387 316.226 219.65V220.105C316.226 221.038 315.841 221.505 315.071 221.505C314.488 221.435 314.196 221.143 314.196 220.63V219.755C314.196 217.072 313.706 214.155 312.726 211.005C310.836 210.842 309.786 210.328 309.576 209.465V209.255C309.576 208.835 309.903 208.508 310.556 208.275L312.096 208.8V208.73C311.303 205.277 310.906 202.943 310.906 201.73C310.906 201.053 311.303 200.715 312.096 200.715C312.819 200.715 313.181 201.952 313.181 204.425L314.196 208.59C315.876 208.03 317.183 206.933 318.116 205.3C318.606 204.367 318.851 203.538 318.851 202.815V202.36C318.851 200.447 317.218 199.362 313.951 199.105H312.516C309.319 199.455 307.721 200.213 307.721 201.38V201.59C307.721 201.94 307.908 202.488 308.281 203.235C308.281 203.748 307.873 204.075 307.056 204.215C306.123 203.772 305.656 202.862 305.656 201.485C305.656 198.918 308.094 197.425 312.971 197.005Z" fill="black"/>
<path d="M39.8416 185.955C63.8514 141.501 106.41 114.707 147.537 102.097C212.841 82.0735 282.774 81.7172 349.339 90.2946C363.57 92.1284 388.23 93.2754 399.412 107.998C408.931 120.53 411.006 141.74 410.903 158.002C410.586 207.897 377.538 239.148 342.964 256.768C276.305 290.74 194.877 284.602 125.226 271.883C98.0633 266.923 65.6342 261.871 41.0997 244.966C25.2658 234.055 15.3192 215.562 7.96925 195.686C1.16826 177.295 -0.843637 158.339 2.76903 138.746C4.36913 130.068 5.82867 120.951 11.1565 117.005" stroke="black" stroke-width="2" stroke-linecap="round"/>
<path d="M349.735 69.9824C350.867 55.5377 361 46.7434 370.308 38.8608C380.997 29.8089 401.523 22.6885 407.597 8.5918" stroke="black" stroke-width="2" stroke-linecap="round"/>
<path d="M386.105 6.67338C395.62 5.66964 405.556 3.00545 414.944 1.02459C419.653 0.0310284 417.516 29.4487 417.516 33.5318" stroke="black" stroke-width="2" stroke-linecap="round"/>
</svg>
