<?xml version="1.0" encoding="utf-8"?>
<!-- Generator: Adobe Illustrator 19.0.0, SVG Export Plug-In . SVG Version: 6.00 Build 0)  -->
<svg version="1.1" id="layer" xmlns="http://www.w3.org/2000/svg" xmlns:xlink="http://www.w3.org/1999/xlink" x="0px" y="0px"
	 viewBox="-153 -46 652 652" style="enable-background:new -153 -46 652 652;" xml:space="preserve">
<style type="text/css">
	.st0{fill:#001648;}
	.st1{fill:#EE3124;}
</style>
<polygon class="st0" points="0.8,300.9 0.8,279.6 -11.7,279.6 -11.7,300.9 -23.3,300.9 -23.3,251.7 -11.7,251.7 -11.7,272 0.8,272 
	0.8,251.7 12.4,251.7 12.4,300.9 "/>
<g>
	<path class="st0" d="M34.1,268.6c-4.9,0-5.9,6-5.9,12.9c0,6.9,1.1,12.6,5.9,12.6c4.9,0,5.9-5.6,5.9-12.6
		C40,274.6,39,268.6,34.1,268.6 M34.1,301.6c-11.2,0-17-8.5-17-20c0-11.5,5.9-20,17-20c11.2,0,17.1,8.4,17.1,20
		C51.1,293.1,45.3,301.6,34.1,301.6"/>
	<path class="st0" d="M77,300.9v-27c0-2.7-1.2-5.4-5.7-5.4c-2.2,0-3.4,0.4-4.7,0.8v31.6H55.3v-36.4c3.9-1.7,9.3-2.9,16.2-2.9
		c12.2,0,16.6,5.2,16.6,12.2v27H77z"/>
	<path class="st0" d="M114.9,268.7c-0.9-0.4-2-0.6-3.5-0.6c-5.7,0-8.1,4.6-8.1,13.9c0,8.7,2.3,12.9,7.9,12.9c1.5,0,2.8-0.4,3.7-0.9
		V268.7z M108.9,317.2c-5.9,0-11.3-1.1-14.4-2.9l2.9-7.2c2.4,1.3,5.9,2.3,9.5,2.3c5.9,0,8-2.8,8-7.2V300c-1.3,0.7-3.5,1.2-6.7,1.2
		c-9.2,0-15.9-7.1-15.9-18.6c0-12.9,6.6-21,19.8-21c5.9,0,11,1.2,13.7,2.9v36.7C125.8,312.2,118.8,317.2,108.9,317.2"/>
</g>
<polygon class="st0" points="136.3,300.9 136.3,251.7 147.8,251.7 147.8,293.1 160.4,293.1 160.4,300.9 "/>
<g>
	<path class="st0" d="M219,268.6c-4.9,0-5.9,6-5.9,12.9c0,6.9,1.1,12.6,5.9,12.6c4.9,0,5.9-5.6,5.9-12.6
		C224.9,274.6,223.9,268.6,219,268.6 M219,301.6c-11.2,0-17-8.5-17-20c0-11.5,5.9-20,17-20c11.2,0,17.1,8.4,17.1,20
		C236,293.1,230.1,301.6,219,301.6"/>
	<path class="st0" d="M263.2,300.9v-27c0-2.7-1.2-5.4-5.7-5.4c-2.2,0-3.4,0.4-4.7,0.8v31.6h-11.2v-36.4c3.9-1.7,9.3-2.9,16.2-2.9
		c12.2,0,16.6,5.2,16.6,12.2v27H263.2z"/>
	<path class="st0" d="M301.2,268.7c-0.9-0.4-2-0.6-3.5-0.6c-5.7,0-8.1,4.6-8.1,13.9c0,8.7,2.3,12.9,7.9,12.9c1.5,0,2.8-0.4,3.7-0.9
		V268.7z M295.2,317.2c-5.9,0-11.3-1.1-14.4-2.9l2.9-7.2c2.4,1.3,5.9,2.3,9.5,2.3c5.9,0,8-2.8,8-7.2V300c-1.3,0.7-3.5,1.2-6.7,1.2
		c-9.2,0-15.9-7.1-15.9-18.6c0-12.9,6.6-21,19.8-21c5.9,0,10.9,1.2,13.7,2.9v36.7C312.1,312.2,305.1,317.2,295.2,317.2"/>
	<path class="st0" d="M173.9,278L173.9,278c0.2-6.5,2.9-9.7,7.1-9.7c4.1,0,6.4,3,6.4,9.7H173.9z M181.5,261.7
		c-11.1,0-17.4,7.8-17.4,19.9c0,12.3,6.8,20.1,18.6,20.1c6.5,0,10.8-1.3,13.8-2.8L194,292c-2.1,1-5.5,2.1-10,2.1
		c-5.7,0-8.3-2.6-9.4-8.5c-0.1-0.7-0.2-1.4-0.3-2.1h23.4v-1.2C198.3,269.3,192.6,261.7,181.5,261.7"/>
	<path class="st0" d="M343.9,276.7h-3.3v19.6c1.9,0.8,3.9,1.1,6.9,1.1c6.4,0,11.4-2.6,11.4-9.7C359,280,354.5,276.7,343.9,276.7
		 M347.1,254.8c-2.6,0-4.5,0.4-6.5,1.1v17.5h3.2c10.2,0,13.6-3.2,13.6-9.6C357.4,257.8,353.8,254.8,347.1,254.8 M347.8,301.6
		c-5.6,0-10.3-1-13.4-2.7v-45.2c2.7-1.6,7.4-2.7,12.8-2.7c10.8,0,16.6,5.1,16.6,12.3c0,7-5.2,10.6-9.6,11.4v0.1
		c4.6,0.9,11.4,5.2,11.4,12.7C365.6,297.5,358,301.6,347.8,301.6"/>
	<path class="st0" d="M391.6,279c-9.7,1.2-15.5,3.3-15.5,11.1c0,5.6,3.4,7.9,9.2,7.9c2.4,0,4.8-0.4,6.4-1.3V279z M384.7,301.6
		c-10,0-14.7-4.4-14.7-11.4c0-10.2,9.6-13.2,21.5-14.4v-2.4c0-5.9-3.6-7.7-8.5-7.7c-3.7,0-7.1,1.4-9.3,2.4l-1.5-3.7
		c2.2-1.2,6.5-2.9,11.8-2.9c7.2,0,13.4,3.1,13.4,12.5v24.7C394.6,300.6,390.1,301.6,384.7,301.6"/>
	<path class="st0" d="M426.5,300.9v-27.7c0-3.6-1.5-7.5-8.1-7.5c-3.6,0-5.3,0.5-7.3,1.4v33.8h-6.3v-36.6c3.4-1.6,7.9-2.7,14.1-2.7
		c10.7,0,13.9,5.9,13.9,11.4v27.8H426.5z"/>
</g>
<polygon class="st0" points="452.5,280.4 467.1,262.4 460.5,262.4 446.7,280.2 446.6,280.2 446.6,251.7 440.4,251.7 440.4,300.9 
	446.6,300.9 446.6,281 446.7,281 461.5,300.9 468.6,300.9 "/>
<path class="st0" d="M-45.6,251.5c-3-0.4-5.9-0.9-8.9-1.7c-13.8-3.7-25.6-11.8-34-23.1l-9.8,5.6c4.3,6,9.5,11.3,15.4,15.8
	c7.6,5.8,16.1,10,25.4,12.4c3.9,1,7.8,1.7,11.8,2.1V251.5z"/>
<path class="st0" d="M-45.6,281.9v-11.2c-4.7-0.5-9.3-1.2-13.8-2.5c-10.3-2.8-19.8-7.4-28.2-13.8c-6.8-5.1-12.6-11.2-17.5-18.1
	l-9.7,5.6c5.6,8.2,12.5,15.4,20.5,21.4c9.6,7.2,20.4,12.5,32,15.7C-56.7,280.5-51.2,281.4-45.6,281.9"/>
<path class="st0" d="M-121.6,245.9c6.1,9.2,13.8,17.1,22.6,23.8c10.4,7.9,22.1,13.6,34.7,17c6.2,1.6,12.4,2.7,18.8,3.1V301
	c-7.3-0.5-14.5-1.7-21.7-3.6c-14-3.7-27-10.1-38.6-18.8c-10-7.6-18.5-16.7-25.5-27.1L-121.6,245.9z"/>
<path class="st1" d="M-121.6,306.6c6.1-9.2,13.8-17.1,22.6-23.8c10.4-7.8,22.1-13.6,34.7-16.9c6.2-1.6,12.4-2.7,18.8-3.1v-11.2
	c-7.3,0.5-14.5,1.7-21.7,3.6c-14,3.8-27,10.1-38.6,18.8c-10,7.6-18.5,16.7-25.5,27.1L-121.6,306.6z"/>
<path class="st1" d="M-45.6,270.7v11.2c-4.7,0.4-9.3,1.2-13.8,2.4c-10.3,2.8-19.8,7.4-28.2,13.8c-6.8,5.1-12.6,11.2-17.5,18.1
	l-9.7-5.6c5.6-8.2,12.5-15.4,20.5-21.4c9.6-7.3,20.4-12.5,32-15.7C-56.7,272-51.2,271.1-45.6,270.7"/>
<path class="st1" d="M-45.6,301c-3,0.4-5.9,0.9-8.9,1.7c-13.8,3.7-25.6,11.8-34,23.1l-9.8-5.6c4.3-6,9.5-11.3,15.4-15.8
	c7.6-5.8,16.1-10,25.4-12.4c3.9-1,7.8-1.7,11.8-2.1V301z"/>
</svg>
